<svg id="Camada_1" data-name="Camada 1" xmlns="http://www.w3.org/2000/svg" viewBox="0 0 595.28 352.95"><defs><style>.cls-1{fill:#00955e;}</style></defs><path class="cls-1" d="M360,87.13l-51.51-30A22.81,22.81,0,0,0,285.67,57L233.92,86.61a22.83,22.83,0,0,0-11.49,19.72l-.24,59.61a22.83,22.83,0,0,0,11.33,19.81l51.5,30a22.83,22.83,0,0,0,22.82.1l51.75-29.6a22.81,22.81,0,0,0,11.48-19.71l.25-59.62A22.82,22.82,0,0,0,360,87.13ZM299,209c-16.07-6.26-31.65-13.29-41.88-28.22-7.34-10.71-8-22.27-3.87-34.23,3.41-9.76,9.39-18,16.47-25.44,4.36-4.57,8.73-9.13,12.16-14.41,8.39-12.92,16.23-26,8.23-43.1,22.34,9.79,41.33,29.63,41.24,55.52-.06,16.57-6.93,31-16.59,44.18-6,8.23-12.24,16.24-13.54,26.9a44.17,44.17,0,0,0,1,15.85C303,209.24,301.71,210.1,299,209Zm51.72-48.25c-.76,12.31-6.94,22-16.53,29.52-7.12,5.55-14.59,10.64-21.83,16-2.89,2.15-3.62.23-4.26-2-2.19-7.73-.72-15.15,2.71-22.07a79.5,79.5,0,0,1,9-13.71,76.47,76.47,0,0,0,17.06-48.4c4.15,3.81,5.61,8.13,7.55,12.09C348.82,141.24,351.31,150.82,350.7,160.79Z"/><path class="cls-1" d="M296.44,235.12A22.91,22.91,0,0,1,284.88,232l-65.43-38.13a23,23,0,0,1-11.39-19.93l.3-75.73a23,23,0,0,1,11.56-19.83l65.75-37.6a23,23,0,0,1,22.95.09L374.05,79a23,23,0,0,1,11.4,19.93l-.31,75.73a23,23,0,0,1-11.56,19.84l-65.74,37.6A23,23,0,0,1,296.44,235.12Zm-9-7.44a18,18,0,0,0,18,.08l65.74-37.6a18,18,0,0,0,9-15.52l.31-75.73a18,18,0,0,0-8.91-15.59L306.1,45.19a18,18,0,0,0-18-.07l-65.74,37.6a18,18,0,0,0-9,15.51l-.3,75.73A18,18,0,0,0,222,189.55Z"/><polygon class="cls-1" points="93.87 282.8 93.87 288.04 70.92 288.04 70.92 310.99 65.67 310.99 65.67 288.04 42.72 288.04 42.72 282.8 93.87 282.8"/><rect class="cls-1" x="108.96" y="282.8" width="51.15" height="5.24"/><path class="cls-1" d="M313.32,289.48a3.16,3.16,0,0,0,2.23,5.4h33.87a8.29,8.29,0,0,1,6.07,2.63,8,8,0,0,1,1.71,2.62,8.55,8.55,0,0,1,.61,3.16v.51a8.38,8.38,0,0,1-8.39,8.4H307.53V307h42.26A3.16,3.16,0,0,0,353,303.8v-1a3.14,3.14,0,0,0-1.45-2.65,1.44,1.44,0,0,0-.31-.19,8.74,8.74,0,0,1-1.78.19H315.94a8.43,8.43,0,0,1-7.79-5.25,8.39,8.39,0,0,1,0-6.33,8.39,8.39,0,0,1,7.79-5.24h41.87v5.24H315.55A3.13,3.13,0,0,0,313.32,289.48Z"/><polygon class="cls-1" points="420.21 309 420.21 312.2 415.99 312.2 410.63 306.96 394.64 291.32 380.53 306.96 403.67 306.96 408.91 312.2 369.93 312.2 369.93 310.91 373.48 306.96 390.88 287.65 394.39 283.74 398.15 287.41 418.13 306.96 420.21 309"/><rect class="cls-1" x="435.65" y="283.31" width="50.29" height="5.24"/><polygon class="cls-1" points="485.93 294.82 485.93 300.06 440.89 300.06 440.89 310.99 435.65 310.99 435.65 294.82 485.93 294.82"/><rect class="cls-1" x="502.26" y="283.31" width="50.29" height="5.24"/><rect class="cls-1" x="502.26" y="306.33" width="50.29" height="5.24"/><rect class="cls-1" x="502.26" y="307.09" width="50.29" height="5.24"/><rect class="cls-1" x="502.26" y="294.82" width="50.29" height="5.24"/><polygon class="cls-1" points="291.2 282.8 291.2 310.99 285.96 310.99 285.96 300.13 246.16 300.13 246.16 310.99 240.91 310.99 240.91 282.8 246.16 282.8 246.16 294.88 285.96 294.88 285.96 282.8 291.2 282.8"/><path class="cls-1" d="M183.15,290.81a9.47,9.47,0,0,0,6.7,16.15h36.23v5.24H189.63A14.69,14.69,0,0,1,178.39,288a12.64,12.64,0,0,1,.85-.94,14.68,14.68,0,0,1,10.39-4.3h36.45V288H189.85A9.48,9.48,0,0,0,183.15,290.81Z"/><rect class="cls-1" x="108.96" y="294.56" width="48.46" height="5.24"/><rect class="cls-1" x="108.96" y="306.96" width="51.15" height="5.24"/></svg>
